<svg width="250" height="250" viewBox="0 0 250 250" fill="none" xmlns="http://www.w3.org/2000/svg">
<path d="M24.6172 220.923L25.4158 222.075L37.7239 211.85L36.9264 210.698L24.6172 220.923Z" fill="#FFE1FB"/>
<path d="M0 241.371L0.798583 242.523L13.1068 232.3L12.3092 231.148L0 241.371Z" fill="#FFE1FB"/>
<path d="M111.582 150.505L110.781 149.354L98.4727 159.576L99.2723 160.728L111.582 150.505Z" fill="#FFE1FB"/>
<path d="M62.3411 191.402L61.5436 190.25L49.2344 200.475L50.033 201.626L62.3411 191.402Z" fill="#FFE1FB"/>
<path d="M135.394 128.905L123.086 139.129L123.886 140.281L136.194 130.055L135.394 128.905Z" fill="#FFE1FB"/>
<path d="M73.8516 180.025L74.6501 181.177L86.9583 170.954L86.1608 169.802L73.8516 180.025Z" fill="#FFE1FB"/>
<path d="M147.707 118.679L148.507 119.831L154.54 114.817L161.727 117.441L162.145 116.068L154.298 113.205L147.707 118.679Z" fill="#FFE1FB"/>
<path d="M193.147 127.377L177.649 121.723L177.23 123.096L192.729 128.75L193.147 127.377Z" fill="#FFE1FB"/>
<path d="M142.164 114.817C142.164 122.303 147.707 128.37 154.545 128.37C161.385 128.37 166.928 122.303 166.928 114.817C166.928 107.333 161.385 101.266 154.545 101.266C147.707 101.266 142.164 107.333 142.164 114.817Z" fill="#FFE1FB"/>
<path d="M148.262 114.817C148.262 118.614 151.073 121.691 154.542 121.691C158.011 121.691 160.823 118.614 160.823 114.817C160.823 111.021 158.011 107.944 154.542 107.944C151.073 107.944 148.262 111.021 148.262 114.817Z" fill="#FFC135"/>
<path d="M44.2545 93.5469H11.5331L2.80078 250H39.8361L44.2545 93.5469Z" fill="#732C84"/>
<path d="M48.2333 93.5469H14.9892L6.35938 250H43.9842L48.2333 93.5469Z" fill="#AB56BF"/>
<path d="M53.2589 97.4129H20.0158L6.25781 249.507L41.397 249.701L53.2589 97.4129Z" fill="#732C84"/>
<path d="M45.5057 95.619C37.502 99.0117 29.0906 99.3442 20.3531 97.2319L10.5703 247.938C21.2886 245.843 31.5742 245.816 39.0155 248.272L45.5057 95.619Z" fill="#DDCBA6"/>
<path d="M129.624 90.6446H42.6826L31.3789 250H120.116L129.624 90.6446Z" fill="#732C84"/>
<path d="M133.57 90.6446H46.6279L35.3242 250H124.062L133.57 90.6446Z" fill="#BF63D6"/>
<path d="M29.4011 98.5054C26.4262 98.3904 23.4105 97.9712 20.3531 97.2318L10.5703 247.938C14.9396 247.083 19.2242 246.594 23.2872 246.455L29.4011 98.5054Z" fill="#EFE3CA"/>
<path d="M45.8359 156.052L49.9543 96.7968H92.1889L91.6913 98.3105H51.2578L47.4958 152.437L45.8359 156.052Z" fill="#DC90E8"/>
<path d="M50.7383 145.381L53.6337 102.193H90.4213L89.9603 103.597H54.7971L52.2121 142.171L50.7383 145.381Z" fill="#DC90E8"/>
<path d="M37.8828 213.95L41.1545 166.248L41.2873 165.96L37.8828 213.95Z" fill="#65194A"/>
<path d="M39.7799 243.251H35.8789L37.8879 213.951L41.2924 165.961L45.8404 156.052L39.7799 243.251ZM54.6365 242.334H41.2527L47.5003 152.438L50.7386 145.382L44.5014 238.451H53.1469C53.54 239.826 54.0365 241.13 54.6365 242.334Z" fill="#A73777"/>
<path d="M55.122 243.251H39.7773L45.8379 156.052L47.4978 152.438L41.2501 242.334H54.6339C54.7897 242.646 54.9527 242.953 55.122 243.251Z" fill="#C05081"/>
<path d="M52.78 237.046H45.8477L52.2061 142.17L52.7089 141.076L59.1541 144.813L52.8803 141.954C71.8856 173.829 99.1486 204.008 108.353 206.762C108.798 206.895 109.295 207.025 109.841 207.152L67.7013 207.151C67.5613 207.147 67.4191 207.144 67.2811 207.144C55.0879 207.144 49.8898 224.429 52.78 237.046ZM113.516 169.593L74.1789 151.663L89.9543 103.596H98.2988C91.1961 115.047 83.5792 130.543 81.497 144.928C81.3966 144.926 81.2963 144.923 81.1938 144.918C81.1928 144.918 81.1917 144.918 81.1907 144.918C81.06 144.918 81.1468 145.273 81.3705 145.855C81.1782 147.354 81.0475 148.841 80.9848 150.307C80.8228 154.157 87.0056 157.47 90.2815 157.47C90.4216 157.47 90.5564 157.464 90.686 157.452C91.4093 157.382 91.9414 157.115 92.1557 156.611C92.1745 156.566 92.1912 156.519 92.2048 156.47C93.0442 153.526 102.354 129.284 109.115 117.307C110.096 127.751 111.846 136.971 112.987 138.152C113.43 138.61 114.993 138.808 117.259 138.815C117.288 139.862 117.303 140.859 117.303 141.817C117.306 156.196 114.187 160.971 113.516 169.593Z" fill="#A73777"/>
<path d="M107.367 90.6445H94.207L94.2237 90.5938H107.408C107.393 90.6118 107.381 90.6265 107.367 90.6445Z" fill="#DF6C1E"/>
<path d="M99.1787 102.193H90.4141L91.6883 98.3103H101.725C100.895 99.5344 100.043 100.832 99.1787 102.193ZM102.767 96.7966H92.1858L94.2043 90.6447H107.364C106.018 92.3016 104.451 94.3811 102.767 96.7966Z" fill="#A73777"/>
<path d="M101.724 98.3105H91.6875L92.1851 96.7968H102.766C102.424 97.2871 102.076 97.7932 101.724 98.3105Z" fill="#C05081"/>
<path d="M53.1455 238.45H44.5L50.7372 145.381L52.211 142.171L45.8526 237.047H52.7849C52.8936 237.523 53.0138 237.989 53.1455 238.45ZM98.3037 103.597H89.9592L90.4202 102.193H99.1849C98.8922 102.654 98.5985 103.122 98.3037 103.597Z" fill="#C05081"/>
<path d="M118.084 19.5118C106.494 15.0607 109.669 2.73546 114.114 0.680679C118.56 -1.3741 129.674 0.851984 127.292 12.4931C124.911 24.1342 118.084 19.5118 118.084 19.5118Z" fill="#964532"/>
<path d="M119.338 12.1652C114.295 10.2287 112.05 6.80109 111.485 3.37795C108.987 7.83017 109.071 16.0504 118.083 19.5118C118.083 19.5118 124.91 24.1342 127.291 12.4931C127.594 11.0087 127.674 9.68202 127.582 8.49402C124.705 15.7911 119.338 12.1652 119.338 12.1652Z" fill="#7F3425"/>
<path d="M121.24 20.6142C112.134 18.0409 114.629 10.914 118.121 9.72599C121.614 8.53798 130.346 9.82519 128.475 16.5565C126.603 23.2878 121.24 20.6142 121.24 20.6142Z" fill="#FFB94A"/>
<path d="M123.485 71.3848C107.449 59.0583 107.608 29.4415 114.753 18.1419C121.897 6.84229 141.266 6.8423 149.522 17.1151C157.777 27.3867 158.624 43.8791 151.479 52.61C144.335 61.3408 123.485 71.3848 123.485 71.3848Z" fill="#964532"/>
<path d="M152.548 43.2939C152.19 24.864 149.799 20.0951 142.508 15.4546C142.508 15.4546 151.114 23.188 147.051 34.0142L152.548 43.2939Z" fill="#7F3425"/>
<path d="M147.351 42.897C142.421 23.2419 138.897 18.6713 130.613 15.3372C130.613 15.3372 140.952 21.6887 139.668 34.192L147.351 42.897Z" fill="#7F3425"/>
<path d="M132.114 36.9787C123.339 28.985 119.453 18.8408 125.012 11.7443C125.455 11.1784 125.949 10.6814 126.464 10.2158C121.681 11.3622 117.385 13.9794 114.753 18.1419C107.608 29.4415 107.449 59.0583 123.485 71.3848C123.485 71.3848 144.335 61.3408 151.479 52.61C153.906 49.6456 155.388 45.7772 155.994 41.5707C150.183 47.6866 140.498 44.6151 132.114 36.9787Z" fill="#7F3425"/>
<path d="M172.954 148.596C171.76 120.286 144.904 88.3093 142.152 88.0816C139.401 87.8528 139.889 99.9189 146.662 111.788C153.437 123.658 160.887 151.792 161.734 154.759C162.582 157.727 173.165 153.618 172.954 148.596Z" fill="#DB2828"/>
<path d="M142.472 85.3663C141.202 85.2615 140.556 88.36 140.894 92.8922C146.176 97.296 167.931 127.308 170.276 153.11C171.866 151.862 173.027 150.285 172.954 148.596C171.762 120.286 145.224 85.5951 142.472 85.3663Z" fill="#ED4848"/>
<path d="M80.9875 150.308C82.1812 121.998 109.037 86.5085 111.789 86.2797C114.54 86.052 113.588 106.482 106.813 118.351C100.04 130.22 93.0542 153.504 92.2075 156.471C91.3608 159.439 80.7763 155.33 80.9875 150.308Z" fill="#ED4848"/>
<path d="M104.743 112.763C96.447 125.776 93.5683 145.499 81.1974 144.919C80.8231 144.901 82.1444 147.646 83.4008 150.391C84.6729 153.169 85.8792 155.947 85.1945 155.861C88.1777 157.572 91.7317 158.14 92.2083 156.472C93.055 153.504 102.512 128.886 109.285 117.016C113.093 110.343 109.259 99.6782 109.764 92.7858C107.963 99.2623 108.392 107.04 104.743 112.763Z" fill="#DB2828"/>
<path d="M97.5688 148.72C92.4292 144.209 82.269 142.663 79.6402 144.468C77.0102 146.272 78.0858 159.418 85.616 161.738C93.1462 164.057 97.5688 148.72 97.5688 148.72Z" fill="#FFE9CA"/>
<path d="M139.967 111.763L111.574 96.722C124.752 162.805 110.61 154.632 113.903 180.284C130.021 187.448 145.528 184.67 160.473 172.792C145.525 169.388 139.967 111.763 139.967 111.763Z" fill="#ED4848"/>
<path d="M124.149 180.069C120.54 163.801 125.941 148.465 136.213 145.814C139.503 144.965 142.891 145.535 146.1 147.218C141.778 130.485 139.967 111.763 139.967 111.763L111.574 96.7223C124.752 162.806 110.61 154.633 113.903 180.284C117.674 181.96 121.409 183.07 125.114 183.669C124.755 182.498 124.424 181.304 124.149 180.069Z" fill="#DB2828"/>
<path d="M135.069 179.416L52.8828 141.954C71.8881 173.83 99.1511 204.008 108.356 206.763C117.561 209.518 149.629 210.942 155.983 208.214C162.338 205.485 211.638 148.731 211.638 148.731C211.638 148.731 147.453 179.095 135.069 179.416Z" fill="#6D2D4A"/>
<path d="M178.194 163.865L148.492 183.39L158.471 171.983L178.194 163.865Z" fill="#934769"/>
<path d="M110.689 87.0419C105.34 97.2729 110.731 134.7 113.154 137.205C115.577 139.711 151.246 135.372 153.017 133.701C154.788 132.031 145.991 88.0856 143.135 85.7885C140.278 83.4925 131.15 79.525 129.044 79.3164C126.936 79.1079 111.264 85.9395 110.689 87.0419Z" fill="#ED4848"/>
<path d="M115.498 133.899C113.654 131.881 109.215 109.69 108.966 93.2432C106.884 107.676 110.927 136.021 112.988 138.153C115.411 140.659 151.241 135.372 153.013 133.702C153.243 133.484 153.291 132.539 153.2 131.073C145.693 133.183 117.744 136.358 115.498 133.899Z" fill="#DB2828"/>
<path d="M142.512 140.859C142.467 144.049 140.809 144.919 140.451 147.046C140.092 149.172 139.062 146.127 139.509 144.387C139.957 142.646 142.512 140.859 142.512 140.859Z" fill="#FF9566"/>
<path d="M137.175 143.371C139.977 145.487 141.209 144.725 141.791 144C142.374 143.275 143.046 141.342 143.046 141.342L139.864 140.375L139.953 142.551C139.953 142.551 135.381 142.019 137.175 143.371Z" fill="#FFB882"/>
<path d="M135.112 144.339C137.914 146.454 139.147 145.692 139.729 144.967C140.311 144.242 140.983 142.31 140.983 142.31L137.801 141.343L137.891 143.517C137.891 143.517 133.319 142.986 135.112 144.339Z" fill="#FFB882"/>
<path d="M86.6 149.128C98.6813 144.083 135.196 139.473 135.196 139.473L135.487 140.476C135.487 140.476 99.9555 162.67 88.6707 160.341C77.3461 158.003 81.7164 151.168 86.6 149.128Z" fill="#FFB882"/>
<path d="M92.8275 153.692C88.5847 152.628 86.49 151.109 85.7771 149.522C81.2719 151.93 77.9877 158.136 88.6704 160.341C99.9553 162.67 135.486 140.476 135.486 140.476L135.408 140.206C124.226 145.643 101.5 155.864 92.8275 153.692Z" fill="#FF9566"/>
<path d="M142.331 140.021C140.119 137.958 135.278 138.345 131.334 140.149L130.199 142.663C133.486 141.889 138.326 143.436 139.821 143.823C141.315 144.209 144.542 142.082 142.331 140.021Z" fill="#FFB882"/>
<path d="M142.053 139.796C144.61 142.081 148.383 147.383 148.335 148.32C148.287 149.237 145.36 146.235 144.592 145.139C143.832 144.055 140.902 141.769 140.902 141.769L142.053 139.796Z" fill="#FFB882"/>
<path d="M163.328 95.7528L135.386 162.178L107.232 163.775L105.539 165.373L193.389 164.004L223.448 95.7528H163.328Z" fill="#EADDBE"/>
<path d="M163.328 95.7531C188.354 107.333 198.632 129.892 193.388 164.004L223.447 95.7531H163.328Z" fill="#F4E9D3"/>
<path d="M137.481 164.876L166.341 95.7528H163.328L135.386 162.178L107.232 163.775L105.539 165.373L137.481 164.876Z" fill="#D8C091"/>
<path d="M215.092 129.079C203.978 131.818 178.894 161.949 149.363 207.146L149.998 208.858C149.998 208.858 201.26 166.263 207.293 158.387C213.326 150.512 226.205 126.34 215.092 129.079Z" fill="#934769"/>
<path d="M208.323 153.359C203.72 158.746 174.999 180.599 159.115 192.534C155.928 197.207 152.675 202.076 149.363 207.146L149.998 208.858C149.998 208.858 201.559 167.1 207.593 159.225C210.834 154.993 215.749 145.222 218.158 138.283C215.194 144.057 211.063 150.153 208.323 153.359Z" fill="#7C3552"/>
<path d="M153.895 200.281L180.701 178.557C180.701 178.557 193.939 151.792 207.718 133.211C195.547 142.621 176.174 166.832 153.895 200.281Z" fill="#7C3552"/>
<path d="M54.0989 139.352C47.431 144.487 61.72 155.102 75.0557 169.824C88.3924 184.548 112.842 188.998 151.263 208.858L152.851 207.83C107.126 161.265 60.7667 134.216 54.0989 139.352Z" fill="#934769"/>
<path d="M136.919 192.386C104.798 177.817 83.8254 173.27 71.652 160.306C64.5232 152.712 57.155 146.258 52.7115 141.077C50.322 146.676 62.7535 157.782 74.7419 171.018C88.0786 185.741 112.847 188.998 151.268 208.858L152.856 207.83C147.53 202.407 142.199 197.26 136.919 192.386Z" fill="#7C3552"/>
<path d="M151.146 210.82L155.785 202.801C155.785 202.801 149.015 195.662 140.895 190.736L151.146 210.82Z" fill="#DBC7A1"/>
<path d="M151.748 209.554L145.902 207.36C145.902 207.36 150.557 198.509 163.131 192.09L151.748 209.554Z" fill="#EADDBE"/>
<path d="M140.474 83.768C136.504 81.4787 130.63 78.1187 129.042 77.9474C127.368 77.767 117.09 83.0534 112.742 85.5951C121.004 116.632 135.392 129.536 135.392 129.536C135.392 129.536 141.796 84.5322 140.474 83.768Z" fill="#FFE9CA"/>
<path d="M140.474 83.7678C140.157 83.5864 139.826 83.3959 139.49 83.202C138.809 93.8963 134.318 125.476 134.318 125.476C134.318 125.476 121.184 113.682 112.807 85.5566L112.742 85.5949C121.004 116.632 135.701 131.192 135.701 131.192C135.701 131.192 141.796 84.532 140.474 83.7678Z" fill="#DB2828"/>
<path d="M119.354 82.5131C119.196 62.14 122.054 50.3276 122.054 50.3276L133.326 61.2845L132.691 79.6029C132.691 79.6029 129.992 85.7661 126.498 86.2789C123.006 86.7929 119.354 82.5131 119.354 82.5131Z" fill="#FFB882"/>
<path d="M231.5 209.075H161.276C148.85 209.075 145.277 248.076 157.705 248.076H227.929C221.585 242.827 222.462 215.263 231.5 209.075Z" fill="#E0D0B1"/>
<path d="M165.598 207.153L67.7014 207.152C48.255 206.526 46.1101 249.373 65.5575 249.999L163.453 250C146.781 249.463 148.926 206.616 165.598 207.153Z" fill="#FF9A3E"/>
<path d="M162.588 249.902C155.47 249.001 152.055 240.057 151.978 230.561H52.0156C52.21 240.418 56.5762 249.71 65.5562 249.999L162.588 250V249.902Z" fill="#ED8129"/>
<path d="M232.258 207.153H154.301L153.598 211.213H231.555C232.595 211.213 233.595 210.304 233.79 209.183C233.984 208.061 233.298 207.153 232.258 207.153Z" fill="#FFB94A"/>
<path d="M226.29 216.9H165.681C153.255 216.9 151.835 243.081 164.261 243.081L225.134 243.083C223.087 236.248 223.417 224.874 226.29 216.9Z" fill="#F4E9D4"/>
<path d="M165.595 207.153H153.956C144.81 215.236 143.748 241.891 152.457 250H163.45C146.778 249.462 148.923 206.616 165.595 207.153Z" fill="#FFB94A"/>
<path d="M138.427 230.561H137.022C137.016 230.23 137.015 229.897 137.018 229.561C137.088 221.675 139.542 214.464 143.526 210.169H73.7113C73.5817 210.164 73.45 210.163 73.3204 210.163C68.5152 210.163 64.4219 212.736 61.745 217.442C59.5886 221.232 58.56 225.983 58.7021 230.561H57.3088C57.1687 225.7 58.2631 220.666 60.5481 216.65C63.4885 211.481 67.9853 208.648 73.288 208.648C73.4354 208.648 73.5817 208.65 73.7291 208.655H147.439L145.811 210.011C141.326 213.743 138.496 221.242 138.422 229.576C138.418 229.906 138.42 230.235 138.427 230.561Z" fill="#FFC156"/>
<path d="M141.463 243.251H139.852C138.109 239.778 137.106 235.381 137.022 230.562H138.427C138.515 235.479 139.596 239.907 141.463 243.251ZM63.2071 243.251H61.3214C60.7068 242.449 60.1518 241.561 59.6636 240.59C58.1908 237.663 57.4121 234.16 57.3086 230.562H58.7019C58.8054 233.904 59.5319 237.152 60.8991 239.869C61.4573 240.979 62.2078 242.168 63.2071 243.251Z" fill="#F4B239"/>
<path d="M140.471 83.7676C139.784 83.372 139.042 82.9448 138.274 82.5075C139.041 82.9448 139.784 83.372 140.471 83.7676ZM117.027 83.2266C117.033 83.2232 117.039 83.2198 117.044 83.2175C117.039 83.2209 117.034 83.2232 117.027 83.2266ZM117.066 83.2052C117.681 82.8805 118.314 82.5503 118.955 82.2212C118.314 82.5503 117.681 82.8805 117.066 83.2052ZM132.696 79.4574L133.155 66.2304L132.696 79.4574Z" fill="#DF6C1E"/>
<path d="M133.152 66.2305L133.268 62.8806L133.152 66.2305Z" fill="#6F1D15"/>
<path d="M107.21 106.702C104.894 104.739 102.772 102.307 100.961 99.458C105.232 93.0344 109.01 88.4233 110.836 86.8735C110.76 86.94 110.709 86.9963 110.685 87.0425C109.352 89.5921 108.687 93.8291 108.475 98.7953C108.461 99.13 108.447 99.467 108.437 99.8085C108.099 102.132 107.768 104.47 107.21 106.702ZM110.878 86.8385C111.192 86.5759 111.445 86.4068 111.631 86.3381C111.299 86.5353 111.042 86.7033 110.878 86.8385Z" fill="#CF2828"/>
<path d="M108.48 107.715C108.051 107.393 107.628 107.055 107.211 106.702C107.769 104.47 108.1 102.131 108.438 99.8084C108.357 102.311 108.379 104.985 108.48 107.715Z" fill="#BF1717"/>
<path d="M121.747 112.478C117.807 112.478 113.807 111.219 110.136 108.868C109.493 103.607 109.042 98.1678 108.968 93.2422C108.725 94.925 108.565 96.7972 108.477 98.7945C108.688 93.8283 109.354 89.5914 110.686 87.0418C110.71 86.9956 110.762 86.9392 110.837 86.8727C110.851 86.8615 110.865 86.8491 110.879 86.8378C111.043 86.7025 111.3 86.5346 111.632 86.3373C111.635 86.3373 111.637 86.3362 111.64 86.3351C111.953 86.1502 112.336 85.9406 112.773 85.7129C115.691 96.6394 119.406 105.52 122.991 112.436C122.578 112.464 122.163 112.478 121.747 112.478ZM139.421 100.254C140.256 92.4757 140.838 85.8425 140.611 84.1664C141.188 84.491 141.691 84.801 142.15 85.102C142.436 90.5483 141.489 95.8109 139.421 100.254Z" fill="#CF2828"/>
<path d="M110.135 108.869C109.575 108.51 109.022 108.125 108.478 107.716C108.377 104.986 108.355 102.311 108.436 99.8087C108.447 99.4672 108.461 99.1302 108.475 98.7954C108.564 96.7981 108.724 94.9259 108.966 93.2431C109.041 98.1687 109.491 103.608 110.135 108.869Z" fill="#BF1717"/>
<path d="M124.315 112.297C120.504 105.938 116.252 97.1306 112.805 85.5571C113.918 84.9089 115.402 84.0884 117.028 83.2273C117.034 83.2239 117.039 83.2216 117.044 83.2182C117.052 83.2137 117.059 83.2104 117.066 83.2058C117.681 82.8812 118.314 82.551 118.955 82.2219C119.087 82.1531 119.22 82.0866 119.351 82.0189C119.352 82.1824 119.353 82.3481 119.354 82.5138C119.354 82.5138 122.604 86.3224 125.905 86.3224C126.103 86.3224 126.301 86.3089 126.499 86.2796C129.992 85.7667 132.691 79.6035 132.691 79.6035L132.696 79.4581V79.4592C134.398 80.3248 136.409 81.4453 138.274 82.5082C139.042 82.9455 139.784 83.3726 140.471 83.7683C140.154 83.5868 139.824 83.3963 139.488 83.2024C139.199 87.7437 138.223 96.0508 137.194 104.108C135.627 106.32 133.705 108.202 131.45 109.637C129.195 111.071 126.783 111.945 124.315 112.297ZM140.536 83.8551C140.52 83.8212 140.504 83.7953 140.486 83.7795C140.505 83.7965 140.52 83.8212 140.536 83.8551Z" fill="#DF8271"/>
<path d="M122.992 112.437C119.407 105.52 115.692 96.6396 112.774 85.7131C112.774 85.712 112.775 85.712 112.775 85.712L112.742 85.5947L112.807 85.5564C116.254 97.1299 120.507 105.937 124.318 112.297C123.878 112.36 123.436 112.406 122.992 112.437ZM137.197 104.107C138.225 96.0501 139.201 87.7431 139.49 83.2018C139.826 83.3957 140.157 83.5862 140.474 83.7676C140.479 83.771 140.483 83.7744 140.488 83.7789C140.506 83.7947 140.523 83.8206 140.538 83.8544C140.552 83.886 140.564 83.9243 140.575 83.9706L140.602 84.161C140.605 84.1633 140.608 84.1644 140.611 84.1666C140.839 85.8427 140.257 92.4759 139.422 100.254C138.785 101.623 138.043 102.912 137.197 104.107Z" fill="#BF1717"/>
<path d="M125.905 86.3218C122.604 86.3218 119.355 82.5132 119.355 82.5132C119.354 82.3475 119.353 82.1818 119.352 82.0183C119.353 82.0172 119.355 82.0161 119.356 82.0161C119.288 69.2872 120.392 59.9692 121.208 54.8474C125.567 56.1324 129.76 58.8939 133.272 62.8806L133.156 66.2305L132.697 79.4575L132.691 79.6029C132.691 79.6029 129.993 85.7661 126.499 86.279C126.302 86.3083 126.103 86.3218 125.905 86.3218Z" fill="#DF6648"/>
<path d="M120.266 44.5861C114.186 72.8075 135.341 83.8276 135.341 83.8276C135.341 83.8276 152.029 66.5125 154.021 44.8499C155.098 33.1378 153.526 29.567 142.695 27.7297C131.891 25.8958 121.847 37.245 120.266 44.5861Z" fill="#FFB882"/>
<path d="M121.523 60.3711C127.088 42.9026 128.313 28.2092 121.689 28.979C115.065 29.7511 112.156 54.8222 121.523 60.3711Z" fill="#7F3425"/>
<path d="M122.481 62.7534C123.872 47.8098 122.667 45.9793 118.312 45.95C113.318 45.9161 112.903 60.2861 122.481 62.7534Z" fill="#FFB882"/>
<path d="M121.048 59.3164C121.881 50.3613 121.16 49.2645 118.549 49.2476C115.557 49.2273 115.308 57.8387 121.048 59.3164Z" fill="#DB5B3E"/>
<path d="M121.287 60.4204C121.311 54.6596 120.723 54.0093 118.85 54.1727C116.703 54.3598 117.077 59.8625 121.287 60.4204Z" fill="#FFB882"/>
<path d="M148.126 54.8772C148.499 52.5294 147.712 50.4667 146.359 50.2683C145.01 50.0789 143.609 51.8294 143.232 54.1851C142.852 56.5386 143.646 58.6001 144.993 58.7895C146.343 58.98 147.747 57.2329 148.126 54.8772Z" fill="#66423B"/>
<path d="M134.881 52.9463C135.395 50.2445 134.65 47.8222 133.201 47.5145C131.762 47.2136 130.181 49.1545 129.669 51.8574C129.156 54.5513 129.907 56.9882 131.347 57.2858C132.792 57.589 134.368 55.6424 134.881 52.9463Z" fill="#66423B"/>
<path d="M127.473 50.7041C127.473 50.7041 132.63 47.813 136.524 49.2174C136.524 49.2174 135.907 46.8898 132.821 46.98C129.743 47.0758 127.473 50.7041 127.473 50.7041Z" fill="#66423B"/>
<path d="M150.196 53.1304C150.196 53.1304 146.537 49.7253 142.777 50.2404C142.777 50.2404 143.966 48.3367 146.605 48.9588C149.243 49.5765 150.196 53.1304 150.196 53.1304Z" fill="#66423B"/>
<path d="M127.32 45.5625L127.273 44.9595C129.374 41.649 133.5 39.9324 135.779 39.8287L135.642 41.897C133.836 41.5589 129.525 42.8574 127.32 45.5625Z" fill="#7C4343"/>
<path d="M151.568 48.0654C149.784 44.2805 145.463 42.8986 144.359 42.875L144.812 40.8698C146.045 40.9554 150.001 42.6901 151.988 47.4038L151.568 48.0654Z" fill="#7C4343"/>
<path d="M140.984 61.6948L140.922 61.9169C140.248 63.3484 138.609 63.8871 137.261 63.1331C136.468 62.6834 135.994 61.8752 135.841 60.987C135.312 62.3847 135.837 64.0145 137.117 64.7381C138.468 65.5012 140.107 64.9545 140.783 63.5276C141.06 62.937 141.082 62.3057 140.984 61.6948Z" fill="#EA7B59"/>
<path d="M131.242 68.4361L140.475 70.0377C140.475 70.0377 138.481 74.8371 134.738 74.074C131.151 73.3448 131.242 68.4361 131.242 68.4361Z" fill="#491D2E"/>
<path d="M131.832 68.745L139.672 70.1054C139.672 70.1054 139.8 72.4037 135.327 71.715C130.617 70.9891 131.832 68.745 131.832 68.745Z" fill="#FFEBEB"/>
<path d="M136.445 76.0246C136.588 75.4114 135.645 75.8814 134.656 75.7044C133.668 75.5275 133.01 74.7723 132.866 75.3843C132.724 75.9975 133.41 76.6377 134.398 76.8147C135.385 76.9905 136.302 76.6377 136.445 76.0246Z" fill="#EF8F6F"/>
<path d="M247.289 242.1V242.098L249.997 234.912C249.998 234.912 249.998 234.912 249.998 234.912L247.289 242.1Z" fill="#541D17"/>
</svg>
