<svg width="170" height="263" viewBox="0 0 170 263" fill="none" xmlns="http://www.w3.org/2000/svg">
<path d="M124.545 54.205H31.4477C28.5575 54.205 26.1679 56.4559 25.9937 59.3402L14.1429 256.303C13.9535 259.444 16.4496 262.096 19.596 262.096L119.638 262.095C122.603 262.095 125.026 259.731 125.1 256.768L130.007 59.8044C130.084 56.735 127.616 54.205 124.545 54.205Z" fill="#F24C5C"/>
<path d="M71.0804 54.2043H34.5591C33.426 54.2043 32.7859 56.4553 33.0987 59.3404L54.5029 256.303C54.8445 259.444 56.1746 262.095 57.4083 262.095H96.655C97.8185 262.095 98.4561 259.731 98.0934 256.767L73.9647 59.8038C73.5885 56.7343 72.2854 54.2043 71.0804 54.2043Z" fill="#D63444"/>
<path d="M116.855 255.208H97.9026L97.7394 253.877H116.855C119.235 253.877 121.146 252.013 121.205 249.632L124.724 108.369C125.196 108.141 125.647 107.917 126.074 107.703L122.537 249.667C122.459 252.774 119.963 255.208 116.855 255.208ZM54.384 255.208H36.6641V254.542L36.8036 93.4224L38.1252 105.589L37.9967 253.877H54.2394L54.384 255.208ZM124.965 98.6819L125.713 68.696C125.743 67.5139 125.304 66.396 124.479 65.5496C123.651 64.7023 122.545 64.2364 121.361 64.2364H81.4942L81.8239 63.1947L81.1762 62.9545L81.1872 62.9038H121.361C122.907 62.9038 124.353 63.5126 125.432 64.6195C126.51 65.7247 127.083 67.1841 127.045 68.7298L126.3 98.6228L124.965 98.6819Z" fill="#FD8389"/>
<path d="M97.9037 255.208H54.3851L54.2405 253.877H97.7405L97.9037 255.208ZM38.1263 105.589L36.8047 93.4224L36.8309 62.9038H58.8033C58.4227 63.3097 58.0397 63.7545 57.6583 64.2364H38.1627L38.1263 105.589Z" fill="#F95A65"/>
<path d="M33.2524 54.2042H3.54297L0 262.096L33.0723 262.095L33.2524 54.2042Z" fill="#D63444"/>
<path d="M90.6503 129.241C90.6503 129.241 112.949 194.252 112.986 196.524C113.024 198.796 82.0652 252.774 82.0652 252.774L81.332 252.558L96.9846 198.039L83.7546 165.586L90.6503 129.241Z" fill="#6D3E4C"/>
<path d="M87.6507 145.041L78.9844 161.243L95.9864 197.458L81.33 252.559L81.4746 252.6C87.3142 239.28 102.82 199.352 102.787 197.458C102.762 195.897 94.2403 164.396 87.6507 145.041Z" fill="#592E3C"/>
<path d="M61.4075 137.448C70.8991 182.718 98.9242 259.747 98.9242 259.747H99.7571L88.5743 161.448L94.1247 156.187L90.9639 129.558C90.9639 129.558 59.4086 127.914 61.4075 137.448Z" fill="#6D3E4C"/>
<path d="M65.5547 148.944C78.5901 136.816 83.2375 137.156 86.9775 138.629C90.7183 140.103 94.0059 138.97 94.0059 138.97L92.1921 131.602L66.0079 130.241L65.5547 148.944Z" fill="#592E3C"/>
<path d="M66.371 131.726C62.998 132.925 60.8375 134.732 61.4074 137.448C70.8991 182.718 98.9241 259.747 98.9241 259.747H99.6936C95.1934 243.893 75.0137 172.239 66.371 131.726Z" fill="#592E3C"/>
<path d="M88.9354 162.859L81.1992 159.883L89.02 159.713L95.821 154.102L88.9354 162.859Z" fill="#592E3C"/>
<path d="M130.334 105.305C136.369 106.92 140.45 105.475 142.15 103.434C143.85 101.394 146.656 96.1234 143.85 95.868C141.046 95.6126 129.059 100.459 129.059 100.459L130.334 105.305Z" fill="#FF9566"/>
<path d="M103.417 104.852C95.1578 102.374 98.4293 81.9553 80.9766 64.9245C80.9766 64.9245 82.2246 111.445 94.7138 115.192C107.201 118.938 130.774 105.2 130.774 105.2L129.981 101.41C122.007 103.151 112.051 107.441 103.417 104.852Z" fill="#FF9239"/>
<path d="M132.376 106.222C132.376 106.513 128.379 97.6531 128.379 97.6531L120.559 98.2095L121.465 104.02L123.846 104.117L121.012 105.762L124.072 110.604L132.376 106.222Z" fill="#EADDBE"/>
<path d="M62.8658 59.928C50.5753 75.4968 54.481 96.5948 57.3737 106.635C60.2664 116.675 55.5819 136.928 63.2902 145.883C63.2902 145.883 74.4214 133.7 82.2185 134.719C90.0173 135.737 91.908 139.695 93.9501 137.95C95.9922 136.203 93.3962 111.874 94.6933 105.181C95.9913 98.4872 94.0583 80.4155 85.3928 69.9388C76.7265 59.4621 62.8658 59.928 62.8658 59.928Z" fill="#FFB94A"/>
<path d="M61.2523 67.7851C59.8918 67.7851 58.5786 68.4751 57.3331 69.7375C52.099 83.4478 55.0576 98.5912 57.3762 106.635C60.2689 116.675 55.5836 136.928 63.2927 145.883C63.2927 145.883 68.6825 139.988 74.588 136.743C75.1968 131.097 75.5333 124.973 75.5333 118.566C75.5333 90.521 69.1399 67.7851 61.2523 67.7851Z" fill="#FF6D2C"/>
<path d="M71.4066 47.9121C63.1622 35.0018 66.679 29.7398 66.679 29.7398C66.679 29.7398 62.2067 22.965 66.7458 16.5817C66.7458 16.5817 67.1136 7.03427 78.5594 4.89749C78.5594 4.89749 86.1061 -3.2336 92.0937 1.45852C92.0937 1.45852 99.0875 -4.09779 102.405 6.75692C105.722 17.6116 101.557 17.5347 101.557 17.5347C101.557 17.5347 108.109 31.5967 97.5282 35.0348C86.9467 38.4737 71.4066 47.9121 71.4066 47.9121Z" fill="#7A4939"/>
<path d="M96.8019 35.1549C96.8019 35.1549 88.6945 34.7532 86.2322 27.318C86.2322 27.318 78.7522 21.3736 83.8011 10.8817C83.8011 10.8817 82.5564 4.30981 85.4339 0.41507C81.6466 1.58704 78.5594 4.89749 78.5594 4.89749C67.1136 7.03427 66.7458 16.5817 66.7458 16.5817C62.2067 22.965 66.679 29.7398 66.679 29.7398C66.679 29.7398 63.1622 35.0018 71.4066 47.9121C71.4066 47.9121 86.2964 38.8712 96.8501 35.2648L96.8019 35.1549Z" fill="#603428"/>
<path d="M79.1559 63.1953L62.8633 59.9288C75.6637 66.017 87.9127 77.2505 87.9127 77.2505C87.9127 77.2505 83.6916 65.9603 79.1559 63.1953Z" fill="#EADDBE"/>
<path d="M151.11 49.9211L125.353 98.0016L83.3594 101.748L83.5158 102.529H140.807L169.999 54.6039L151.11 49.9211Z" fill="#DBCCAD"/>
<path d="M83.5156 102.529H140.807L127.673 100.658L83.5156 102.529Z" fill="#BA9E70"/>
<path d="M156.565 51.274L127.617 100.658L140.802 102.529L169.994 54.6039L156.565 51.274Z" fill="#EFE3CA"/>
<path d="M57.8789 108.979C59.6276 119.466 56.214 137.245 63.1164 145.648C68.3184 124.014 76.5941 116.589 94.4274 118.107C94.2819 113.232 94.2168 108.65 94.5703 105.957C84.7624 104.606 68.2296 103.48 57.8789 108.979Z" fill="#FF6D2C"/>
<path d="M73.204 100.035C71.8993 80.5203 65.8694 59.0417 62.6063 60.1342C58.7463 61.4271 52.3021 69.6072 51.1589 81.3151C50.1146 92.0218 57.4475 115.896 62.833 120.267C68.2185 124.638 98.9739 102.859 107.133 99.2676L108.602 90.3696C97.3022 90.0652 82.748 94.7657 73.204 100.035Z" fill="#EDAD47"/>
<path d="M66.0196 112.979C60.635 108.607 54.3684 82.1606 55.4127 71.4538C55.5987 69.5487 55.9361 67.7485 56.369 66.0447C53.9202 69.7762 51.775 75.0298 51.1619 81.315C50.1176 92.0217 56.3842 118.469 61.7697 122.84C67.1552 127.21 98.9769 102.858 107.136 99.2675L108.042 93.7746C96.9492 99.8306 70.8707 116.916 66.0196 112.979Z" fill="#FF9239"/>
<path d="M110.266 262.068H98.8236C98.8236 262.068 97.2424 259.243 99.5796 258.074C102.603 256.563 110.266 262.068 110.266 262.068Z" fill="#F2E9CE"/>
<path d="M88.7056 262.068H82.2649L79.4102 253.227C79.4102 253.227 82.1152 248.38 83.4901 250.931C84.3373 252.502 83.8258 257.301 83.8444 259.276C86.0657 260.894 88.7056 262.068 88.7056 262.068Z" fill="#F2E9CE"/>
<path d="M21.9469 248.061H6.46094L8.12084 137.27H22.0314L21.9469 248.061Z" fill="#F95A65"/>
<path d="M22.5812 68.7329H8.67063L8.13281 63.6002H23.6188L22.5812 68.7329Z" fill="#F95A65"/>
<path d="M22.5812 79.9551H8.67063L8.13281 74.8216H23.6188L22.5812 79.9551Z" fill="#F95A65"/>
<path d="M116.962 88.7511C115.912 86.7208 107.776 86.8756 103.445 90.9098L106.109 98.1641C109.85 96.549 113.091 93.7155 115.453 93.9497C117.814 94.1848 118.012 90.7821 116.962 88.7511Z" fill="#FFB882"/>
<path d="M116.023 91.2842C115.845 96.3298 115.354 96.7881 114.595 97.2481C113.837 97.7081 111.472 97.1052 111.204 96.3137C110.936 95.5231 111.383 93.5352 112.008 93.6992C112.632 93.8641 113.391 93.914 113.391 93.914L116.023 91.2842Z" fill="#FFB882"/>
<path d="M115.293 87.7293C118.025 88.355 119.975 89.6454 120.883 90.9045C121.791 92.1635 122.92 95.3843 122.957 96.1217C122.995 96.8582 121.43 97.7841 121.096 96.8176C120.761 95.8503 119.714 92.9575 119.43 92.84C119.147 92.7225 116.364 91.2469 116.232 91.2714C116.1 91.2977 115.293 87.7293 115.293 87.7293Z" fill="#FFB882"/>
<path d="M108.657 98.9279C108.657 99.2678 104.661 88.8967 104.661 88.8967L96.8398 89.5487L97.7471 96.3497L100.127 96.463L97.2931 98.3892L100.354 104.057L108.657 98.9279Z" fill="#EADDBE"/>
<path d="M82.7589 72.8843C79.7165 72.5621 75.7094 70.9369 71.4485 69.3117C70.0761 68.7883 68.6775 68.2649 67.2755 67.7846C66.2608 64.7397 65.2351 62.4236 64.3008 61.162L66.9246 62.0287C73.1041 65.4745 78.8473 69.7446 82.7589 72.8843ZM85.8893 72.5689C85.1105 70.9496 84.1499 69.1316 83.0811 67.4954C83.8819 68.2353 84.6573 69.0479 85.3946 69.9391C85.9129 70.5648 86.4068 71.2176 86.8769 71.8941C86.718 72.0691 86.5395 72.2196 86.3383 72.3406C86.1954 72.426 86.0457 72.5021 85.8893 72.5689Z" fill="#DF6729"/>
<path d="M81.1759 62.9546L64.1992 56.6491L65.1928 54.2037L66.5187 50.9423L68.8981 45.0867L69.249 44.2233L71.4408 38.8311C76.0669 42.4882 80.1866 48.0267 83.1495 53.5797L83.0176 54.2045L81.1861 62.9039L81.1759 62.9546Z" fill="#DF6648"/>
<path d="M80.7495 66.5957L66.9268 62.0287L64.3029 61.162L61.9827 60.3959L61.707 60.3046L63.9732 56.5638L64.2023 56.6492L81.179 62.9546L81.8267 63.1948L81.2399 65.0466L80.7495 66.5957Z" fill="#CC7B6A"/>
<path d="M76.6812 22.2135C70.4442 37.5193 70.5102 51.8113 70.56 52.9182C70.6116 54.0259 80.6063 61.4247 84.0377 62.0986C84.0377 62.0986 96.2217 46.6989 98.7466 33.8225C101.273 20.946 98.0101 17.7674 94.1491 16.9734C90.2874 16.1803 79.1004 16.2767 76.6812 22.2135Z" fill="#FFB882"/>
<path d="M74.8924 41.981C83.36 21.726 85.7302 11.9527 78.5157 15.6395C71.3029 19.3262 71.8043 39.035 71.8043 39.035L74.8924 41.981Z" fill="#603428"/>
<path d="M74.8141 35.2313C75.0238 30.442 69.6476 26.143 68.6693 31.3019C67.6918 36.4608 70.9312 44.1336 72.219 42.5701C73.5077 41.0075 74.7439 36.8388 74.8141 35.2313Z" fill="#FFB882"/>
<path d="M73.6679 35.4583C73.7998 32.4464 70.42 29.7447 69.8053 32.9892C69.1906 36.2329 71.2267 41.0577 72.0368 40.0743C72.8468 39.0909 73.6239 36.4696 73.6679 35.4583Z" fill="#DB5B3E"/>
<path d="M95.1454 37.3832C95.7102 36.0767 95.5631 34.7932 94.8165 34.5209C94.0749 34.2478 93.0128 35.09 92.4514 36.3989C91.8899 37.7045 92.0345 38.9864 92.7769 39.2587C93.5244 39.5343 94.5831 38.6947 95.1454 37.3832Z" fill="#4F3131"/>
<path d="M89.6919 33.2191C90.8191 32.8276 91.3247 46.8143 90.6204 48.3465C90.2711 49.11 85.5469 46.4981 85.5469 46.4981C85.5469 46.4981 89.4864 33.2859 89.6919 33.2191Z" fill="#FFB882"/>
<path d="M90.026 33.733C90.5452 36.7145 91.0466 46.7676 90.4471 48.0377C90.1765 48.6144 87.1941 47.1431 85.9757 46.4708C85.8945 46.7549 85.8438 46.9181 85.8438 46.9181C85.8438 46.9181 90.8048 49.9462 91.1354 49.1834C91.7721 47.7096 90.9341 34.4907 90.026 33.733Z" fill="#EA7B59"/>
<path d="M87.2517 34.0519C87.9197 32.7852 87.8808 31.494 87.1671 31.1583C86.4509 30.8167 85.328 31.5726 84.66 32.8334C83.9886 34.0959 84.0258 35.393 84.742 35.7321C85.4582 36.0669 86.582 35.3127 87.2517 34.0519Z" fill="#4F3131"/>
<path d="M93.9175 24.8067C93.5285 23.6846 86.8747 23.2915 85.2385 23.4614C83.604 23.6297 83.2649 24.8228 83.2074 26.07C83.1499 27.3164 90.1572 30.0476 92.606 28.6186C93.734 27.9582 94.3082 25.9297 93.9175 24.8067Z" fill="#7A4939"/>
<path d="M95.1848 30.8208C94.9252 33.0455 98.6534 34.1202 99.5319 33.2061C100.411 32.2878 101.166 31.2655 100.772 30.343C100.376 29.4171 97.9938 26.4313 97.062 27.0402C96.1335 27.6481 95.3023 29.7976 95.1848 30.8208Z" fill="#7A4939"/>
<path d="M78.4688 46.0284C78.6193 45.7672 78.7173 45.609 78.7173 45.609C80.8059 48.61 82.2933 50.3764 87.0818 52.7635C87.059 52.7652 86.8654 52.9149 86.5829 53.1406C83.7147 52.0735 78.9558 48.1652 78.4688 46.0284Z" fill="#EA7B59"/>
<path d="M143.598 100.714C145.921 98.2778 147.849 93.2897 147.283 91.5334C146.715 89.7763 145.185 90.457 144.732 91.1935C144.278 91.93 143.768 97.4279 143.484 98.731C143.202 100.035 143.598 100.714 143.598 100.714Z" fill="#FF9566"/>
<path d="M141.898 103.095C143.819 101.274 144.922 97.5511 144.065 96.2388C143.208 94.9273 141.791 95.4346 141.458 95.9859C141.126 96.5356 141.525 100.64 141.457 101.613C141.389 102.587 141.898 103.095 141.898 103.095Z" fill="#FF9566"/>
</svg>
